# xmcd
#
# Track frame offsets: 
#        150
#        20832
#        47808
#        68445
#        92532
#        116355
#        137837
#        163469
#        184983
#        206508
#        224133
#        249898
#        276186
#        300525
#        319125
#
# Disc length: 4509 seconds
#
# Revision: 0
# Processed by: cddbd v1.5.2PL0 Copyright (c) Steve Scherf et al.
# Submitted via: ExactAudioCopyFreeDBPlugin 1.0
#
DISCID=df119b0f
DTITLE=Various Artist - Nhac vang 5 D2
DYEAR=1900
DGENRE=ballad
TTITLE0=Truong Thanh - Phan bac 
TTITLE1=Giao Linh - Hai vi sao lac
TTITLE2=Phuong Dung - Hom nao anh di
TTITLE3=Thanh Tuyen - Can nha ngoai o
TTITLE4=Thanh Thuy - Nho mot nguoi
TTITLE5=Truong Thanh - Nguoi Ngoai pho
TTITLE6=Giao Linh - Con me tinh ai
TTITLE7=Phuong Dung - Noi buon dem dong
TTITLE8=Thanh Tuyen - Chuyen 3 mua mua
TTITLE9=Thanh Thuy - Xin hay quen toi
TTITLE10=Truong Thanh - Luu but ngay xanh
TTITLE11=Truong Thanh Tuyen - Mua ve sau
TTITLE12=Phuong Dung - Truoc gio tam biet
TTITLE13=Thanh Thuy - Tinh qua con dau
TTITLE14=Giao Linh - Gap lai co nhan
EXTD=
EXTT0=
EXTT1=
EXTT2=
EXTT3=
EXTT4=
EXTT5=
EXTT6=
EXTT7=
EXTT8=
EXTT9=
EXTT10=
EXTT11=
EXTT12=
EXTT13=
EXTT14=
PLAYORDER=
